<svg xmlns="http://www.w3.org/2000/svg" xml:space="preserve" width="245" height="40" viewBox="0 0 245 40"><path d="M37.5 22.6c-.6-.7-1-1.7-1-2.6s.3-1.9.9-2.6c.2-.3.4-.6.5-1s.1-.7 0-1.1c-.2-1.1-.6-2.1-1-3.1-.4-.9-.8-1.8-1.3-2.7-.2-.3-.5-.6-.8-.8s-.7-.3-1-.3c-.9-.1-1.8-.5-2.4-1.1-.7-.7-1-1.6-1.1-2.5 0-.4-.1-.7-.3-1.1-.2-.3-.4-.6-.8-.8-.8-.5-1.7-1-2.6-1.4-1-.4-2-.8-3-1-.4-.1-.7-.1-1.1 0s-.7.3-1 .5c-.7.6-1.6 1-2.5 1s-1.8-.3-2.5-1c-.3-.2-.6-.4-1-.5s-.7-.1-1.1 0c-1 .3-2.1.6-3 1-.9.5-1.7.9-2.5 1.5-.4.2-.6.4-.8.7-.2.4-.3.7-.3 1.1-.1 1-.5 1.8-1.1 2.5C6 8 5.1 8.4 4.1 8.5c-.3 0-.7.1-1 .3-.2.1-.5.4-.6.7-.5.9-1 1.8-1.4 2.7-.4 1-.8 2.1-1 3.2-.1.3-.1.7 0 1s.2.7.5.9c.6.7 1 1.7 1 2.6 0 1-.4 1.9-1 2.6-.2.3-.4.6-.5.9s-.1.7 0 1c.3 1.1.6 2.2 1 3.2s.9 1.9 1.4 2.7c.2.3.4.5.7.7s.6.3 1 .3c.9 0 1.8.5 2.5 1.1.7.7 1 1.6 1.1 2.5 0 .4.1.7.3 1.1.2.3.4.6.8.8.8.5 1.7 1 2.6 1.4 1 .4 2 .8 3 1 .4.1.7.1 1.1 0s.7-.3 1-.5c.7-.6 1.6-1 2.5-1s1.8.3 2.5 1c.3.2.6.4 1 .5s.7.1 1.1 0c1-.3 2.1-.6 3-1s1.8-.8 2.6-1.4c.3-.2.6-.5.8-.8s.3-.7.3-1.1c.1-.9.5-1.8 1.1-2.5.7-.7 1.6-1.1 2.5-1.1.3 0 .7-.1 1-.3s.5-.4.7-.7c.5-.9 1-1.8 1.4-2.7.4-1 .8-2.1 1-3.2.1-.3.1-.7 0-1-.2-.2-.3-.5-.6-.8M29.7 31c-1.4 1.4-3.1 2.6-4.9 3.4-1.8.7-3.8 1.1-5.8 1.1s-4-.4-5.8-1.2-3.5-1.9-4.9-3.4c-1.4-1.4-2.5-3.1-3.3-5-.7-1.8-1.1-3.9-1.1-5.9s.4-4.1 1.1-5.9c.8-1.9 1.9-3.6 3.3-5s3.1-2.6 4.9-3.4c1.9-.8 3.8-1.2 5.8-1.2s4 .4 5.8 1.2 3.5 1.9 4.9 3.4c1.4 1.4 2.5 3.1 3.3 5s1.2 3.9 1.1 5.9c0 2-.4 4.1-1.1 5.9q-1.05 2.85-3.3 5.1M19 10.6c-1.2 0-2.4.2-3.5.7s-2.1 1.2-3 2c-.9.9-1.5 1.9-2 3.1-.5 1.1-.7 2.4-.7 3.6 0 2.5 1 4.9 2.8 6.6 1.7 1.7 4.1 2.7 6.5 2.7h1.4c.1 0 .2-.1.3-.1.1-.1.1-.2.1-.3v-3.3c0-.1 0-.2-.1-.3s-.2-.1-.3-.1h-1.4c-1.3 0-2.5-.5-3.5-1.4-.9-.9-1.5-2.1-1.6-3.4q0-1.05.3-2.1c.3-1.05.6-1.3 1.1-1.8s1.1-.9 1.7-1.2 1.3-.4 2-.4c1.3.1 2.5.6 3.5 1.6.9 1 1.4 2.3 1.4 3.6v9c0 .1.1.1.1.2 0 0 .1.1.2.1h3.4c.1 0 .2-.1.3-.1.1-.1.1-.2.1-.3v-8.7c0-2.5-.9-4.9-2.6-6.7-1.7-1.9-4-2.9-6.5-3" style="fill:#e41844"/><path d="M83.4 9.7H75c-.6 0-1.2.2-1.6.7-.4.4-.7 1-.7 1.7v18s0 .1.1.1l.1.1h2.7s.1 0 .1-.1l.1-.1v-4.7h7.7c1.1 0 2.1-.2 3.1-.7 1-.4 1.8-1.1 2.6-1.9.7-.8 1.3-1.8 1.6-2.8s.5-2.1.4-3.2c-.2-2-1.1-3.8-2.6-5.1-1.4-1.3-3.3-2-5.2-2m.2 12.4h-7.7v-8.9c0-.1 0-.1.1-.2 0 0 .1-.1.2-.1h7.5c1.2 0 2.3.5 3.2 1.3.8.9 1.3 2 1.3 3.2s-.5 2.4-1.3 3.2q-1.5 1.5-3.3 1.5M59.1 9.6c-2.5 0-4.9.9-6.7 2.7-1.8 1.7-3 4-3.3 6.6 0 .4-.1.7-.1 1.1s0 .8.1 1.2c.3 2.5 1.5 4.8 3.3 6.5s4.2 2.6 6.7 2.6h3.7s.1 0 .1-.1l.1-.1v-2.8s0-.1-.1-.1l-.1-.1h-3.7c-1.7 0-3.3-.6-4.6-1.8-1.3-1.1-2.1-2.7-2.3-4.4 0-.3-.1-.6-.1-.9v-.7c.2-1.7 1-3.3 2.2-4.5 1.3-1.2 2.9-1.8 4.6-1.8 1.6 0 3.2.6 4.4 1.7s2.1 2.5 2.4 4.2c.1.4.1.8.1 1.2v10c0 .1 0 .2.1.2.1.1.2.1.2.1h2.5c.1 0 .2 0 .2-.1.1-.1.1-.2.1-.2V20c0-.6 0-1.1-.1-1.7-.4-2.4-1.6-4.6-3.4-6.2-1.6-1.6-3.9-2.5-6.3-2.5m45.9.1h-8.4c-.6 0-1.2.2-1.6.7-.4.4-.7 1-.7 1.7v18s0 .1.1.1l.1.1h2.6c.1 0 .2 0 .2-.1.1-.1.1-.2.1-.2v-4.6h7.7c1.1 0 2.1-.2 3.1-.7 1-.4 1.8-1.1 2.6-1.9.7-.8 1.3-1.8 1.6-2.8s.5-2.1.4-3.2c-.2-2-1.1-3.8-2.6-5.1-1.4-1.3-3.3-2-5.2-2m.2 12.4h-7.7V13h7.7c1.2 0 2.3.5 3.2 1.3.8.9 1.3 2 1.3 3.2s-.5 2.4-1.3 3.2c-.9.9-2.1 1.4-3.2 1.4M244.7 13c.1 0 .2 0 .2-.1.1-.1.1-.2.1-.2V9.9s0-.1-.1-.1l-.1-.1h-13.5c-.6 0-1.2.2-1.6.7-.4.4-.7 1-.7 1.7V28c0 .6.2 1.2.7 1.7.4.4 1 .7 1.6.7h13.5s.1 0 .1-.1l.1-.1v-2.8s0-.1-.1-.1l-.1-.1h-12.6v-5.1h11.3s.1 0 .1-.1l.1-.1v-3s0-.1-.1-.1l-.1-.1h-11.3V13zM135.3 23.1h-2.5c-.1 0-.2 0-.4.1l-.3.3c-.7 1.3-1.8 2.4-3.1 3.1s-2.8.9-4.3.6c-1.5-.2-2.9-1-4-2.1s-1.7-2.6-1.9-4.2q-.15-1.5.3-3c.45-1.5.8-1.9 1.5-2.6q1.05-1.2 2.4-1.8c.9-.4 1.9-.6 2.9-.6 1.3 0 2.5.4 3.6 1 1.1.7 2 1.6 2.6 2.8l.3.3c.1.1.2.1.4.1h2.7l.1-.1s.1-.1.1-.2v-.2c-.2-.4-.3-.9-.5-1.3-.9-1.8-2.4-3.4-4.1-4.4-1.8-1-3.8-1.4-5.8-1.3-2.3.2-4.6 1.2-6.3 2.9s-2.8 3.9-3 6.3c-.2 1.5 0 3 .4 4.4s1.2 2.7 2.1 3.8c1 1.1 2.1 2 3.5 2.6q1.95.9 4.2.9c1.6 0 3.1-.4 4.5-1.1s2.6-1.8 3.6-3.1c.6-.9 1.1-1.8 1.5-2.8v-.2c0-.1 0-.1-.1-.2l-.1-.1c-.2.1-.2.1-.3.1m66.8-13.4h-2.6s-.1 0-.1.1l-.1.1V27l-9.4-16.1c-.2-.4-.5-.7-.8-.9q-.6-.3-1.2-.3h-2.5c-.1 0-.3 0-.4.1s-.3.1-.4.3c-.1.1-.2.2-.2.4-.1.1-.1.3-.1.4v19.2s0 .1.1.1l.1.1h2.7s.1 0 .1-.1l.1-.1V13l9.3 16.1c.2.4.5.7.8.9q.6.3 1.2.3h2.7c.3 0 .6-.1.8-.3s.3-.5.3-.8V10c0-.1 0-.2-.1-.2-.2-.1-.2-.1-.3-.1m23.1 13.4h-2.5c-.1 0-.2 0-.4.1l-.3.3c-.7 1.3-1.8 2.4-3.1 3.1s-2.8.9-4.3.6c-1.5-.2-2.9-1-4-2.1s-1.7-2.6-1.9-4.2q-.15-1.5.3-3c.45-1.5.8-1.9 1.5-2.6q1.05-1.2 2.4-1.8c.9-.4 1.9-.6 2.9-.6 1.3 0 2.5.4 3.6 1 1.1.7 2 1.6 2.6 2.8l.3.3c.1.1.2.1.4.1h2.7l.1-.1s.1-.1.1-.2v-.2c-.2-.4-.3-.9-.5-1.3-.9-1.8-2.4-3.4-4.1-4.4-1.8-1-3.8-1.4-5.8-1.3-2.4.2-4.6 1.2-6.3 2.9s-2.8 3.9-3 6.3c-.2 1.5 0 3 .4 4.4s1.2 2.7 2.1 3.8c1 1.1 2.1 2 3.5 2.6q1.95.9 4.2.9c1.6 0 3.1-.4 4.5-1.1s2.6-1.8 3.6-3.1c.6-.9 1.1-1.8 1.5-2.8v-.2c0-.1 0-.1-.1-.2l-.1-.1c-.2.1-.3.1-.3.1m-69-13.4h-1.8c-.2 0-.4.1-.5.2s-.2.3-.2.5v8h-11.4v-8c0-.2-.1-.4-.2-.5s-.3-.2-.5-.2h-1.8c-.2 0-.4.1-.5.2s-.2.3-.2.5v19.2c0 .1 0 .2.1.3 0 .1.1.2.1.2l.2.2c.1 0 .2.1.3.1h1.8c.1 0 .2 0 .3-.1.1 0 .2-.1.2-.2.1-.1.1-.1.1-.2s.1-.2.1-.3v-8h11.4v8c0 .2.1.4.2.5s.3.2.5.2h1.8c.1 0 .2 0 .3-.1.1 0 .2-.1.2-.2.1-.1.1-.1.1-.2s.1-.2.1-.3V10.4c0-.2-.1-.4-.2-.5s-.3-.2-.5-.2m13.9-.1c-2.5 0-4.9.9-6.7 2.7-1.9 1.7-3 4-3.3 6.6 0 .4-.1.7-.1 1.1s0 .8.1 1.2c.3 2.5 1.5 4.8 3.3 6.5s4.2 2.6 6.7 2.6h3.7s.1 0 .1-.1l.1-.1v-2.8s0-.1-.1-.1l-.1-.1h-3.7c-1.7 0-3.3-.6-4.6-1.8s-2.1-2.7-2.3-4.4c0-.3-.1-.6-.1-.9v-.7c.2-1.7 1-3.3 2.2-4.5 1.3-1.2 2.9-1.8 4.6-1.8 1.6 0 3.2.6 4.4 1.7s2.1 2.5 2.4 4.2c.1.4.1.8.1 1.2v10.1s0 .1.1.1l.1.1h2.7s.1 0 .1-.1l.1-.1V20c0-.6 0-1.1-.1-1.7-.4-2.4-1.6-4.6-3.4-6.2-1.6-1.6-3.9-2.5-6.3-2.5" style="fill:#211850"/></svg>