<svg xmlns="http://www.w3.org/2000/svg" width="127" height="78" fill="none" viewBox="0 0 127 78" class="logo" aria-label="diva-e logo" data-v-ad3cb37c=""><path fill="#020554" fill-rule="evenodd" d="M24.098 16.873c-2.217-3.076-5.15-4.65-8.803-4.65-1.934 0-3.648.359-5.15 1.146a10.103 10.103 0 0 0-3.792 3.149c-1.075 1.358-1.862 3.005-2.362 4.867-.5 1.79-.787 3.864-.787 6.153 0 2.506.288 4.724.931 6.653.643 1.934 1.503 3.649 2.65 5.011 1.146 1.359 2.433 2.434 4.008 3.149 1.574.715 3.292 1.075 5.15 1.075 3.648 0 6.441-1.43 8.227-4.363l.072 3.576h7.584V2.205h-7.728v14.668ZM22.524 34.62c-1.287 1.574-2.861 2.361-4.723 2.361-1.862 0-3.576-.859-4.795-2.505-1.219-1.646-1.862-3.792-1.862-6.442 0-6.08 2.217-9.158 6.725-9.158 4.507 0 6.585 3.22 6.585 9.59 0 2.577-.643 4.651-1.934 6.154h.004Z" clip-rule="evenodd"></path><path fill="#020554" d="M35.119 9.501h7.8V2.205h-7.8V9.5ZM35.119 42.563h7.8V13.009h-7.8v29.554ZM74.262 13.01h-8.227l-6.297 19.535-6.226-19.536h-8.659l10.589 29.554h8.16l10.66-29.554Z"></path><path fill="#020554" fill-rule="evenodd" d="M96.73 15.299c-1.002-1.003-2.289-1.718-3.935-2.218-1.646-.499-3.576-.787-5.938-.787-2.361 0-4.363.288-6.01.787-1.646.5-3.004 1.215-4.007 2.146-1.004.931-1.79 2.002-2.218 3.293a15.875 15.875 0 0 0-.787 4.223h7.3c.216-1.286.716-2.361 1.502-3.22.788-.788 2.075-1.215 3.865-1.215 1.502 0 2.72.288 3.648.787.93.572 1.358 1.287 1.358 2.218 0 1.075-.36 1.79-1.003 2.218-.715.427-2.001.859-3.935 1.146-1.935.288-3.793.572-5.439.931-1.646.36-3.077.86-4.291 1.575a7.09 7.09 0 0 0-2.79 3.005c-.715 1.286-1.002 2.933-1.002 5.078 0 2.434.787 4.364 2.361 5.866 1.575 1.502 4.08 2.29 7.512 2.29 2.002 0 3.792-.288 5.295-.931 1.502-.644 2.721-1.431 3.648-2.506.072 1.003.216 1.862.5 2.65h7.3v-18.75c0-1.861-.216-3.507-.644-4.938-.643-1.502-1.358-2.721-2.29-3.648Zm-5.082 16.032c0 .859-.216 1.718-.572 2.505-.355.787-.858 1.43-1.502 2.074-.643.57-1.358 1.074-2.218 1.358-.859.36-1.79.5-2.788.5-2.506 0-3.793-1.076-3.793-3.293 0-1.287.428-2.29 1.287-2.933.86-.643 2.362-1.215 4.651-1.718 1.43-.288 2.578-.572 3.293-.787.787-.216 1.358-.572 1.718-.931l-.072 3.22-.004.005ZM115.695 19.45c-.715.428-1.502.644-2.433.644-1.359 0-2.506-.5-3.365-1.43-.859-.932-1.359-2.218-1.43-3.864h14.74c0-4.292-.859-7.44-2.577-9.59-1.718-2.146-4.224-3.15-7.512-3.15-1.647 0-3.149.288-4.363.788-1.287.5-2.362 1.215-3.221 2.218a9.03 9.03 0 0 0-2.002 3.436 14.939 14.939 0 0 0-.715 4.507c0 7.8 3.576 11.664 10.732 11.664 2.29 0 4.292-.571 5.938-1.79 1.647-1.219 2.789-2.86 3.509-5.079h-5.798c-.36.644-.788 1.287-1.503 1.647Zm-5.654-11.663c.859-.86 1.79-1.215 2.933-1.215.571 0 1.075.072 1.646.288.5.216 1.003.5 1.359.859.427.36.715.859 1.003 1.502.216.572.359 1.287.427 2.074h-8.731c.072-1.502.5-2.72 1.359-3.508h.004Z" clip-rule="evenodd"></path><path fill="#020554" d="M123.191 52.238H3.226v1.38H123.19v-1.38ZM2.997 69.353v.03c0 3.524 2.611 6.309 6.15 6.309 2.221 0 3.626-.86 4.904-2.154l-.91-.893c-1.176 1.122-2.276 1.769-3.96 1.769-2.7 0-4.75-2.226-4.75-5.066v-.034c0-2.818 2.032-5.027 4.75-5.027 1.663 0 2.822.702 3.855 1.684l.948-1.016c-1.223-1.16-2.556-1.947-4.783-1.947-3.61 0-6.204 2.874-6.204 6.345Z"></path><path fill="#020554" fill-rule="evenodd" d="M15.583 69.353v.033c0 3.382 2.506 6.31 6.239 6.31 3.732 0 6.272-2.962 6.272-6.343v-.034c0-3.382-2.506-6.31-6.239-6.31-3.732 0-6.272 2.962-6.272 6.344Zm11.076 0v.033c0 2.785-1.998 5.028-4.804 5.028s-4.837-2.281-4.837-5.066v-.034c0-2.784 1.998-5.027 4.803-5.027 2.806 0 4.838 2.28 4.838 5.066Z" clip-rule="evenodd"></path><path fill="#020554" d="M32.318 63.215h-1.3v12.27h1.35v-10.06l7.923 10.06h1.105v-12.27h-1.35v9.832l-7.728-9.831ZM44.324 69.353v.03c0 3.524 2.611 6.309 6.15 6.309 2.221 0 3.626-.86 4.905-2.154l-.91-.893c-1.177 1.122-2.277 1.769-3.962 1.769-2.7 0-4.748-2.226-4.748-5.066v-.034c0-2.818 2.031-5.027 4.748-5.027 1.663 0 2.823.702 3.856 1.684l.948-1.016c-1.223-1.16-2.556-1.947-4.783-1.947-3.61 0-6.204 2.874-6.204 6.345ZM59.188 63.215h-1.385l-.004-.004v12.27h8.291v-1.279h-6.902V63.216ZM68.109 63.22v7.13c0 3.471 2.036 5.33 5.1 5.33 3.064 0 5.116-1.859 5.116-5.435V63.22h-1.383v7.13c0 2.684-1.35 4.051-3.7 4.051-2.348 0-3.749-1.49-3.749-4.134V63.22h-1.384ZM81.656 72.679l-.86 1.016c1.474 1.316 3.065 1.963 5.012 1.963 2.437 0 4.19-1.367 4.19-3.47v-.034c0-1.875-1.261-2.874-3.995-3.47-2.7-.58-3.331-1.228-3.331-2.383v-.034c0-1.105 1.016-1.98 2.611-1.98 1.261 0 2.4.406 3.538 1.333l.808-1.071c-1.244-1-2.526-1.507-4.312-1.507-2.328 0-4.029 1.422-4.029 3.348v.034c0 2.014 1.295 2.924 4.118 3.538 2.577.546 3.19 1.193 3.19 2.332v.034c0 1.21-1.032 2.086-2.733 2.086s-2.929-.58-4.207-1.735ZM94.327 63.215h-1.384v12.27h1.384v-12.27Z"></path><path fill="#020554" fill-rule="evenodd" d="M97.379 69.353v.033c0 3.382 2.505 6.31 6.238 6.31 3.732 0 6.272-2.962 6.272-6.343v-.034c0-3.382-2.506-6.31-6.238-6.31-3.733 0-6.272 2.962-6.272 6.344Zm11.075 0v.033c0 2.785-1.997 5.028-4.803 5.028s-4.837-2.281-4.837-5.066v-.034c0-2.784 1.997-5.027 4.803-5.027s4.837 2.28 4.837 5.066Z" clip-rule="evenodd"></path><path fill="#020554" d="M114.113 63.215h-1.3v12.27h1.35v-10.06l7.923 10.06h1.105v-12.27h-1.35v9.832l-7.728-9.831ZM123.207 27.323h-20.251v3.648h20.251v-3.648Z"></path></svg>