<?xml version="1.0" encoding="utf-8"?>
<svg xmlns="http://www.w3.org/2000/svg" viewBox="21.2725 38.3806 442.9518 307.5192" width="442.952px" height="307.519px" preserveAspectRatio="none"><g id="object-3" transform="matrix(1, 0, 0, 1, -7.251720905303955, -140.42279052734375)"><g transform="matrix(1, 0, 0, 1, -2.291774, 13.296036)" id="object-0"><path fill="#ed5e06" d="M 259.2 165.512 C 258.998 165.693 160.07 222.827 159.161 223.291 L 158.494 223.615 L 158.494 240.248 L 158.494 256.86 L 158.959 256.577 C 159.201 256.416 164.819 253.182 171.428 249.382 C 181.836 243.38 285.433 183.599 287.474 182.407 L 288.202 181.962 L 277.875 176.02 C 272.195 172.746 265.688 169.007 263.444 167.714 C 261.201 166.421 259.302 165.431 259.2 165.512 Z" stroke="none" style="stroke-width: 0.028;"/><path fill="#000126" d="M 290.667 213.954 C 276.157 222.342 240.486 242.935 211.404 259.73 L 158.494 290.268 L 158.494 315.247 L 158.494 340.226 L 208.857 369.308 C 236.546 385.315 259.321 398.391 259.443 398.391 C 259.564 398.391 282.382 385.315 310.129 369.308 L 360.593 340.226 L 360.593 290.247 L 360.593 240.248 L 359.947 240.652 C 359.583 240.874 355.279 243.359 350.387 246.149 C 345.497 248.958 334.725 255.162 326.438 259.952 C 293.457 278.99 246.084 306.334 238.666 310.619 C 232.483 314.195 230.886 315.186 231.089 315.388 C 231.291 315.55 250.672 326.827 258.938 331.577 C 259.443 331.88 260.413 331.333 295.295 311.225 C 315 299.868 331.25 290.53 331.411 290.469 C 331.652 290.389 331.693 292.653 331.652 307.001 L 331.592 323.614 L 295.922 344.208 C 276.298 355.546 260.069 364.903 259.827 365.024 C 259.463 365.186 254.754 362.519 226.481 346.168 C 208.372 335.7 192.204 326.342 190.526 325.373 L 187.495 323.614 L 187.454 315.247 L 187.414 306.88 L 232.826 280.667 C 257.806 266.237 293.497 245.624 312.13 234.852 L 346.023 215.289 L 331.693 206.962 C 323.811 202.394 317.304 198.655 317.203 198.676 C 317.122 198.696 305.178 205.567 290.667 213.954 Z" style="stroke-width: 0.028; transform-box: fill-box; transform-origin: 50% 50%;" stroke="none"/></g><g id="object-1"><path d="M 48.188 439.842 C 42.345 440.534 36.391 443.747 33.234 447.928 C 31.572 450.144 29.938 453.467 29.163 456.319 C 28.36 459.31 28.304 466.178 29.052 468.92 C 30.243 473.24 31.96 476.535 34.397 479.194 C 37.166 482.185 40.379 484.123 44.643 485.452 C 46.914 486.145 47.44 486.2 52.065 486.2 C 56.219 486.2 57.438 486.089 59.404 485.618 C 62.284 484.898 65.801 483.431 67.518 482.24 L 68.819 481.354 L 68.819 472.104 L 68.819 462.827 L 61.204 462.827 L 53.588 462.827 L 53.588 465.569 C 53.588 469.252 53.533 469.197 57.77 469.197 L 61.065 469.197 L 61.065 473.461 L 61.065 477.726 L 59.487 478.308 C 56.911 479.221 55.277 479.526 52.425 479.498 C 47.745 479.498 44.477 478.308 41.68 475.538 C 38.689 472.603 37.166 468.449 37.166 463.104 C 37.139 458.452 38.191 455.018 40.572 451.861 C 44.754 446.322 54.613 445.187 61.73 449.424 C 64.167 450.864 64.748 450.919 65.856 449.756 C 66.327 449.202 67.185 448.039 67.767 447.125 L 68.764 445.464 L 67.49 444.467 C 65.662 443.082 62.367 441.365 60.235 440.7 C 57.022 439.676 52.287 439.343 48.188 439.842 Z" fill="#000126" stroke="none" style="stroke-width: 0.028;"/><path d="M 143.175 439.842 C 134.119 441.143 127.196 447.402 124.842 456.43 C 123.845 460.224 123.845 465.679 124.842 469.501 C 126.919 477.477 132.264 483.043 140.129 485.425 C 142.427 486.117 143.009 486.2 147.191 486.2 C 151.372 486.2 151.954 486.117 154.252 485.425 C 161.868 483.126 167.157 477.698 169.4 469.889 C 169.954 467.95 170.037 467.064 170.037 462.966 C 170.037 458.867 169.954 457.981 169.4 456.042 C 168.016 451.279 165.246 447.014 161.84 444.411 C 159.736 442.833 155.775 440.894 153.311 440.257 C 151.234 439.731 145.557 439.482 143.175 439.842 Z M 149.96 447.042 C 154.169 447.707 157.963 450.531 159.763 454.325 C 161.12 457.233 161.452 458.867 161.452 462.966 C 161.452 467.064 161.12 468.698 159.763 471.606 C 157.215 476.978 151.4 479.858 144.92 478.917 C 139.437 478.169 135.56 474.984 133.676 469.695 C 133.039 467.84 132.956 467.286 132.956 463.243 C 132.929 460.224 133.039 458.369 133.316 457.427 C 135.476 449.811 141.901 445.796 149.96 447.042 Z" fill="#000126" stroke="none" style="stroke-width: 0.028;"/><path d="M 394.905 439.842 C 390.806 440.423 386.181 442.556 383.218 445.214 C 377.901 450.005 375.215 457.538 375.963 465.652 C 376.876 475.317 382.747 482.655 391.858 485.425 C 394.157 486.117 394.738 486.2 398.92 486.2 C 403.102 486.2 403.683 486.117 405.982 485.425 C 416.062 482.351 421.933 474.07 421.933 462.966 C 421.933 453.328 417.668 446.017 409.776 442.085 C 406.508 440.423 404.071 439.842 400.028 439.703 C 398.117 439.648 395.818 439.703 394.905 439.842 Z M 401.689 447.042 C 408.89 448.205 413.32 454.27 413.32 462.993 C 413.32 471.91 408.779 477.864 401.219 478.917 C 393.132 480.08 386.597 475.566 384.935 467.673 C 384.409 465.181 384.409 460.75 384.935 458.258 C 386.652 450.199 393.326 445.741 401.689 447.042 Z" fill="#000126" stroke="none" style="stroke-width: 0.028;"/><path d="M 450.706 439.842 C 448.02 440.174 443.949 441.614 441.484 443.11 C 436.499 446.073 433.093 450.947 431.681 457.067 C 430.989 460.113 431.072 466.427 431.847 469.335 C 433.481 475.483 436.998 480.218 442.093 483.209 C 446.192 485.618 450.429 486.532 456.245 486.283 C 461.7 486.034 466.048 484.815 470.036 482.406 L 471.476 481.548 L 471.476 472.187 L 471.476 462.827 L 463.86 462.827 L 456.245 462.827 L 456.245 465.541 C 456.245 469.197 456.245 469.197 460.482 469.197 L 463.722 469.197 L 463.722 473.461 L 463.722 477.726 L 461.783 478.418 C 456.882 480.246 450.401 479.803 446.552 477.366 C 444.946 476.341 442.814 474.015 441.872 472.27 C 440.487 469.64 439.878 466.815 439.878 462.966 C 439.878 457.649 441.263 453.772 444.17 450.919 C 446.054 449.064 447.3 448.288 449.543 447.596 C 454.583 446.017 459.845 446.793 465.383 449.95 C 466.823 450.753 467.239 450.808 468.125 450.199 C 468.679 449.811 471.088 446.322 471.282 445.657 C 471.365 445.27 468.485 443.193 466.186 442.03 C 463.085 440.479 460.371 439.842 456.106 439.703 C 454.14 439.648 451.703 439.703 450.706 439.842 Z" fill="#000126" stroke="none" style="stroke-width: 0.028;"/><path d="M 81.835 462.938 L 81.835 485.812 L 86.127 485.812 L 90.42 485.812 L 90.475 476.867 L 90.558 467.95 L 93.134 467.978 C 95.432 467.978 95.765 468.061 96.374 468.643 C 96.762 469.03 99.365 472.797 102.134 477.061 C 105.43 482.101 107.451 484.954 108.005 485.286 C 108.725 485.729 109.445 485.812 113.211 485.812 L 117.587 485.812 L 111.854 477.311 C 108.67 472.52 105.568 468.227 104.848 467.535 L 103.519 466.261 L 104.793 465.763 C 106.537 465.07 109.528 463.049 110.387 461.941 C 113.128 458.424 114.097 453.938 112.99 449.673 C 111.799 445.159 109.002 442.584 103.408 440.922 C 101.497 440.34 100.722 440.285 91.611 440.174 L 81.835 440.091 L 81.835 462.938 Z M 100.251 447.208 C 102.383 447.845 104.35 449.673 104.82 451.473 C 105.623 454.519 104.654 458.147 102.577 459.781 C 100.694 461.304 98.866 461.747 94.463 461.802 L 90.558 461.858 L 90.475 454.519 C 90.448 450.476 90.475 447.014 90.558 446.793 C 90.78 446.239 97.98 446.544 100.251 447.208 Z" fill="#000126" stroke="none" style="stroke-width: 0.028;"/><path d="M 181.585 455.959 C 181.668 471.717 181.668 471.827 182.333 473.766 C 183.385 476.951 184.548 478.889 186.792 481.105 C 189.09 483.403 191.666 484.898 194.823 485.729 C 197.315 486.394 203.407 486.394 205.9 485.729 C 212.352 484.04 216.977 479.277 218.639 472.686 C 219.165 470.637 219.192 469.584 219.192 455.295 L 219.192 440.119 L 215.038 440.119 L 210.885 440.119 L 210.885 454.159 C 210.885 462.606 210.774 468.947 210.58 470.027 C 209.998 473.655 208.004 476.563 205.124 477.975 C 203.795 478.612 203.13 478.751 200.777 478.834 C 197.287 478.972 195.515 478.391 193.355 476.397 C 191.61 474.818 190.558 472.741 190.142 470.027 C 189.949 468.947 189.838 462.661 189.838 454.159 L 189.838 440.119 L 185.684 440.119 L 181.502 440.119 L 181.585 455.959 Z" fill="#000126" stroke="none" style="stroke-width: 0.028;"/><path d="M 233.039 462.966 L 233.039 485.812 L 236.805 485.812 L 240.544 485.812 L 240.461 469.944 L 240.378 454.104 L 251.898 468.837 C 265.052 485.674 264.609 485.092 265.384 485.508 C 265.689 485.674 267.212 485.812 268.735 485.812 L 271.532 485.812 L 271.532 462.966 L 271.532 440.119 L 267.794 440.119 L 264.055 440.119 L 264 455.904 L 263.917 471.689 L 251.759 456.181 C 245.058 447.624 239.381 440.534 239.104 440.368 C 238.827 440.23 237.359 440.119 235.836 440.119 L 233.039 440.119 L 233.039 462.966 Z" fill="#000126" stroke="none" style="stroke-width: 0.028;"/><path d="M 285.656 462.966 L 285.656 485.84 L 296.677 485.729 C 306.869 485.646 307.838 485.591 309.832 485.037 C 318.61 482.628 324.37 476.175 325.838 467.12 C 326.309 464.184 326.032 458.59 325.257 455.904 C 323.18 448.593 317.696 443.22 309.97 440.922 C 308.059 440.34 307.312 440.285 296.816 440.174 L 285.656 440.063 L 285.656 462.966 Z M 305.872 447.042 C 310.164 447.734 313.847 450.476 315.675 454.325 C 317.032 457.233 317.364 458.867 317.364 462.966 C 317.364 467.064 317.032 468.698 315.675 471.606 C 313.903 475.372 310.469 477.948 306.259 478.751 C 304.902 479.028 302.41 479.166 299.198 479.166 L 294.24 479.166 L 294.24 462.966 L 294.24 446.765 L 299.17 446.765 C 301.856 446.765 304.875 446.904 305.872 447.042 Z" fill="#000126" stroke="none" style="stroke-width: 0.028;"/><path d="M 337.719 443.442 L 337.719 446.765 L 342.371 446.765 C 344.919 446.765 351.759 446.848 357.602 446.959 L 368.181 447.125 L 368.181 443.636 L 368.181 440.119 L 352.95 440.119 L 337.719 440.119 L 337.719 443.442 Z" fill="#000126" stroke="none" style="stroke-width: 0.028;"/><path d="M 337.995 460.806 C 337.995 462.91 337.912 469.39 337.802 475.206 L 337.635 485.812 L 341.956 485.812 L 346.303 485.812 L 346.359 475.095 L 346.442 464.35 L 356.051 464.267 L 365.688 464.212 L 365.55 463.021 C 365.495 462.384 365.356 460.861 365.273 459.67 C 365.19 458.341 364.996 457.372 364.775 457.233 C 364.608 457.122 358.488 457.012 351.233 457.012 L 337.995 457.012 L 337.995 460.806 Z" fill="#000126" stroke="none" style="stroke-width: 0.028;"/></g></g></svg>