<svg xmlns="http://www.w3.org/2000/svg" fill="none" viewBox="0 0 174 76"><g fill="#111827" clip-path="url(#a)"><path d="M38.462 0C17.479 0 .469 17.013.469 38s17.01 38 37.993 38c20.982 0 37.993-17.013 37.993-38S59.445 0 38.462 0m0 63.333C24.474 63.333 13.134 51.99 13.134 38s11.338-25.333 25.328-25.333V38H63.79c0 13.992-11.341 25.333-25.328 25.333"></path><path d="M23.336 38h15.127v15.13c-8.355 0-15.127-6.773-15.127-15.13M101.059 53.608c-8.606 0-15.606-7.002-15.606-15.61 0-8.607 7.002-15.61 15.606-15.61s15.607 7.002 15.607 15.61-7.002 15.61-15.607 15.61m0-22.542a6.94 6.94 0 0 0-6.931 6.932 6.94 6.94 0 0 0 6.931 6.932 6.94 6.94 0 0 0 6.931-6.932c0-3.823-3.109-6.932-6.931-6.932M119.273 44.43V23.044c0-.097.079-.175.175-.175h8.647c.096 0 .174.078.174.174v20.917c0 .096.079.174.175.174h9.722c.096 0 .174.079.174.175v8.648a.174.174 0 0 1-.174.175h-10.191a8.7 8.7 0 0 1-8.7-8.702zM162.045 53.13l-5.503-7.516-5.505 7.517h-11.095L150.992 38l-11.109-15.13h11.096l5.563 7.513 5.562-7.514H173.2L162.088 38l11.053 15.13z"></path></g><defs><clipPath id="a"><path fill="#111827" d="M.469 0h172.727v76H.469z"></path></clipPath></defs></svg>
